<svg xmlns="http://www.w3.org/2000/svg" viewBox="0 0 418.58 550.81"><defs><style>.a{fill:#716869;opacity:0.28;}.b{fill:#cd8a2a;}.c,.m{fill:#d69c29;}.d{fill:#f2d899;}.e{fill:#e39960;}.f{fill:#eaeaea;}.g{fill:#bababa;}.h{fill:#cfcfce;}.i{fill:none;}.i,.k,.l,.m,.n,.o,.p{stroke:#231f20;stroke-miterlimit:10;}.j{fill:#231f20;}.k{fill:#e27c59;}.l{fill:#c39448;}.n{fill:#237770;}.o{fill:#2e9c93;}.p{fill:#d75b29;}</style></defs><title>chester</title><path class="a" d="M62.31,61.62s-56.68,84.47-23.92,165h0s2.92,84.57,123.21,98.34,168.21,5.93,168.21,5.93,49.67-68.13,47.15-99.94S388.67,96.62,294,33.17,110.56,16.8,110.56,16.8,66.21,52.07,62.31,61.62"/><path class="b" d="M89,115.7s7.5,27.44,10.08,35.6S90.5,273.47,90.5,273.47s.42,28.65,9,34,22.48,8,22.48,8L109.15,141.77Z"/><path class="b" d="M94.48,141.77S80,112.28,91.4,104.45c0,0,2.52-12.37,23.72,8.15s9.36,9.45,9.36,9.45,16.34-9.47,41.59-9.45,84.24,5.5,84.24,5.5l37.23-26.91s12.92-13.48,14.77-3.3,4.5,12.22,0,38.72S94.48,141.77,94.48,141.77Z"/><path class="c" d="M104.65,148.74S74,66.52,124.14,120.85c0,0-36.18,3.88,33.33-4.56S255.64,121,255.64,121,296.28,78.08,302,86.68s-1.43,46.09,3.11,63,11.07,176.58,11.45,179.48S129,340,99.64,300.27c0,0-4.88-72.43,2.56-99.76A124.07,124.07,0,0,0,104.65,148.74Z"/><path class="d" d="M105,149.94S81.15,118.12,91.4,104.45s18.33,33,18.33,33S107.66,156.44,105,149.94Z"/><path class="d" d="M283,144.47c0-1.69-12.67-32.15,19.33-56.58,0,0,4.88,8.32-1.22,30.27s4.33,32.74-4.78,30.62S283,144.47,283,144.47Z"/><path class="d" d="M110.41,174.71l28.16-.53s-3.16,12-7.66,13.17S111.41,189.21,110.41,174.71Z"/><path class="d" d="M195,171s-5.06,10.83,7.93,12.79,18.52-5.93,20.5-8.86a41.35,41.35,0,0,0,3.48-6.68Z"/><path class="b" d="M164.31,208.7s.18,27.08,1.76,25.25,6.91-10.5,3.58-28.5Z"/><path class="b" d="M118.74,130.78c8.62,5.78,31.24,8.64,56.24,11s79.33-7.32,86-12.65-23.53,11.39-68.1,8.36c0,0-60.84-2.14-70.87-9.42S103.83,120.78,118.74,130.78Z"/><path class="b" d="M113.81,142.13c2.5,2.49,102,34.6,152,5.54,0,0,17.34-12.32,10.67-10.19s-14.67,14.74-38.17,16.94-86.92-.9-113.71-11.35S113.81,142.13,113.81,142.13Z"/><path class="b" d="M195.9,209.89s96.46,3.31,105.19-25.23-1.28.22-6.28,3.59-5.16,13.27-73.29,14.33S195.9,209.89,195.9,209.89Z"/><path class="b" d="M125.16,217.86c16.25.46,18.88-4.51-10.8-10.45S108.92,217.4,125.16,217.86Z"/><path class="b" d="M301.09,215.55s-56.58,34.57-80.18,38.07-4.62,11.23,50.39-15.14S301.09,215.55,301.09,215.55Z"/><path class="b" d="M103,251.12s55.73,32.5,96.27,27,96.6-25,101.83-25,10.57-1.5-19.35,10-91.12,32.25-123.93,15.62C157.81,278.74,80.67,247.12,103,251.12Z"/><path class="b" d="M99.28,273.12s49.57,21.24,69.8,24.12,25.72,14-58.52-12.06C110.56,285.18,85.25,276.12,99.28,273.12Z"/><path class="b" d="M233.57,299.21s73.84-36.1,73.29-31.35-14.7,7.66-25.12,15.46S212.8,309.17,233.57,299.21Z"/><path class="e" d="M151.81,193.12s-1.5,14,3.5,10,9,5.58,9,5.58,5.08-9.5,7.54-7.79,6.66,6,6.81,2.36.82-11,.82-11S156.31,186.62,151.81,193.12Z"/><path class="d" d="M202.05,239.91s1.87,11.21,3.9,6.87a19.88,19.88,0,0,1,5.45-6.87Z"/><path class="b" d="M174.65,229.37c5.89.17,18.56-1.64,7.79-3.8S168.75,229.21,174.65,229.37Z"/><path class="b" d="M149,226.59c5.89.17,18.56-1.64,7.79-3.8S143.08,226.42,149,226.59Z"/><path class="b" d="M177.2,221.88c5.9.17,18.57-1.65,7.8-3.8S171.31,221.71,177.2,221.88Z"/><path class="b" d="M149,217.69c5.89.16,18.56-1.65,7.79-3.8S143.08,217.52,149,217.69Z"/><path class="f" d="M6.17,358.47c9.14,3.65-16.86-21.69,81.14-61,0,0,18.9,49.67,186,42.67l59.89-13.84s75.16,49.5,81.16,85.17,1.31,139.33,1.31,139.33H3.22S-3,354.82,6.17,358.47Z"/><path class="g" d="M87.31,297.45s14.28,23.15,123.3,33q4.09.36,8.37.71c116.67,9.34,114.17-4.84,114.17-4.84s11.7,7.23,2.5,14.18-53.81,16.72-102.08,10.22-147-20.4-159.26-48.9C74.31,301.78,77.7,290,87.31,297.45Z"/><path class="g" d="M83.1,407.62s3.21-9.5,11.21-10.5,96.9-13.9,179,14.05c0,0-1.61,49.95,3.22,79.95s1.83,44,1.83,44l-13.25,3.34s-154.49,5-166.12-6.65C98.94,531.81,86.88,497.12,83.1,407.62Z"/><polygon class="h" points="83.1 407.62 98.94 531.81 265.06 538.46 258.91 416.47 83.1 407.62"/><path class="a" d="M58.41,71.16c-4.36,1,3.72-8.26,5.76-12.49,24.7-34.5,88.44-96,229.86-25.5s41,290.17,41,290.17-55.43,12.55-116,12.32C219,335.66,198.51,38.2,58.41,71.16Z"/><path class="i" d="M95.65,299.21s-9-8.09-3.34-61.76c0,0,5.34-46,5.67-59s4.67-36.33,6.33-36.67,1.67,4.67,1.67,4.67-3.33,10-4.33,26.33-4,60.67-6,70-1.88,41-1.67,44c.33,4.67,4,11.77,4.23,12.43C98.21,299.21,98.31,301.46,95.65,299.21Z"/><path class="i" d="M102.81,152.12l-2,2.3s-16.34-27-12.17-46c0,0,1.83-17,20.66-1.33,0,0,10.34,11.16,10.84,12.66s-2.67.67-4-.33-10.67-19-20-16.17S94.48,135,94.48,135l8.33,17.17"/><path class="i" d="M91.4,104.45s3.33-1.17,9.41,12c0,0,2.5,4.33,5.59,20.08,0,0,2.25,3.92,1-4.16s-4.41-19.54-8.59-23.92-5.25-6-6-5.25A15.3,15.3,0,0,1,91.4,104.45Z"/><path class="i" d="M123,121.12c.67,0,38.83-11,83.5-8,0,0,37.67,3.83,38.67,6.16s-18.84-3.66-36.84-3.83-62,.5-73.16,5S124,123.62,123,123.28,123,121.12,123,121.12Z"/><path class="i" d="M249,119.12s45.67-34.84,49-33.5,5.33,2,6.33,14.16-5.16,39.67-2,45.34-3.5.66-3.16-3,3.16-30.17,3.5-35,.33-18.84-3.84-18.84-26.66,16.17-26.66,16.17L251.65,120S247.15,123,249,119.12Z"/><path class="i" d="M296.48,92.78S279,108.62,278,120.12s-2.33,21.33,5,24.33c0,0,2.5.33.17-2s-7.67-5.15-2.5-23.82a55.47,55.47,0,0,1,14.5-22.35S300.31,91.62,296.48,92.78Z"/><path class="i" d="M304.42,151.12s8.56,20.66,7.56,82,.08,3,.08,3,1.08,71.66,0,73.66S311,304.45,311,295.12s-2.5-92-2.5-92-1-39.17-5.67-49.17S304.42,151.12,304.42,151.12Z"/><path class="i" d="M146.31,173.28l-38.16.84s-2.5,1.83,0,1.66,37.5-1.24,37.5-1.24S147.9,174.12,146.31,173.28Z"/><path class="i" d="M111.31,175.79s1.5,9.74,10.34,12.33,12.83-3.84,12.83-3.84l3.17-5.83s2.75-2.08,1.5,1.5-6.09,9.33-9.09,9.92-18.41.35-20.33-14.08Z"/><path class="i" d="M193.65,172.12s33.16-3.75,37.5-3.09c0,0,4.91-.75.75-1.66s-21.17,1.25-21.17,1.25l-17.58,2.08S192.29,172.27,193.65,172.12Z"/><path class="i" d="M227.56,169s-3,8.45-6.91,11.12-9.42,9.33-21.5,3.5c0,0-5.18-2.48-3.76-11.7l-1.74.2s-1.84,7.66,1.91,10.33,8.75,8.06,20.34,3.49S229,169,229,169Z"/><path class="i" d="M179.48,192.23c-.61-2.2-28.08-2.64-27.92,0s.75,12.3,3.5,13.22,2.42-3.67,2.92-5.17,2.81-.41,3.75,2.59c1.17,3.75,4.09,9.74,7.67,2.25,0,0,1.69-4.06,3-4.6,1.08-.44,2.09-.74,2.92,3.93,0,0,.54,2,3.56-1.42S180.08,194.43,179.48,192.23Zm-.83,8.72c-.17,1.33-2.33,3.15-2.58,1.91s-.59-2.74-.59-2.74c-3-4.17-5.83,1.83-5.83,1.83-3.88,10.06-7,1-7,0,.06-.45-1.63-4-4.17-3.17-2.29.8-1.75,5.09-3.08,5s-1.92-8.83-1.92-8.83v-1.5c0-1.5,24.75-1.75,25.17,0A32.94,32.94,0,0,1,178.65,201Z"/><path class="i" d="M166.17,210.7c-.14.24,0,19.92,0,19.92s1.23,1.25,2.06-1.25,0-18.67,0-18.67S167.29,208.87,166.17,210.7Z"/><path class="i" d="M122.56,237.74s12.83-5.87,46-3,50.09,6.5,50.09,6.5,1.62,2,0,1.75-27.5-6.12-53.38-6.75-16.75-2.64-41.37,2.24C123.94,238.48,120.56,239.24,122.56,237.74Z"/><path class="i" d="M202.07,238.48s2.62,7.39,3,7,5.25-4.33,5.44-5.73l-1.93-.31s-2.43,4.34-2.28,3.56-.92,2.36-2.83-4.33Z"/><path class="j" d="M202.07,175.79s2.2,3.76,3.08,4.26,1.36.07,1.14-3.56c0,0,1.77-1.62,1.77.88s.75,6.5,0,7.12-5-.37-7.87-5.5S202.07,175.79,202.07,175.79Z"/><path class="i" d="M206.29,170.77s-.85,4.44,3.15,3.77c0,0,4.42-2.8,2.85-4.36l-.89.08s-.43,2.51-2.15,3.11-2.38-.37-2.25-2.67Z"/><path class="j" d="M120.19,179.12c.17,1.33-1.19,3.62,2.87,5.84,0,0,.35.56.31-1.25s.35-4.53,1.1-3.34a20.41,20.41,0,0,1,2.09,7c.22,2.43-6-.86-6.62-1.66a9.69,9.69,0,0,1-1-6.5C119.47,176.54,120,177.64,120.19,179.12Z"/><path class="i" d="M122.28,175.55s-1.06,3.94,1,3.75,4.81-1.93,4.94-2.87.18-1.35.18-1.35l-1.18,0a4.2,4.2,0,0,1-2.38,2.47c-1.68.5-1.81.31-1.72-.39s.13-1.95.13-1.95Z"/><path class="i" d="M288.63,353.73s-15.32,37.89-17.07,56.39c0,0-.58,2.45,0,3.06s6.07-33.23,17.92-53.56l2.69-6.24Z"/><path class="i" d="M415.4,550.78c.8-42.64,1.64-107.77-1.09-139.33-.21-2.49,2.12-7.56-21.33-32.5s-38.67-35.17-56-44.5l-1.13-2.2s29,16.2,40.38,27.53,36.08,36.84,38.08,46.34c0,0,1.12-2.67,3.06,34.33,1.14,21.8.68,72.43.11,110.33"/><path class="i" d="M4.44,550.78C3,509.25,3.63,406.71,8.52,354.29c.38-4.08,4.05-7,5-7.84C16.31,344,22,335,40.31,323.78s29.5-16.16,30.84-16.66,4.16-1,0-1.67-1.5,0-1.5,0-53.34,24.73-63,48.28c0,0-9.2,110.79-5.1,197"/><path class="i" d="M81.81,295.37s-38-18.25-47.5-90.75,13.74-116.15,28-143c16.1-30.3,66.07-68.25,137-57.5,66.44,10.07,106.05,21.5,130.05,62s56,86.79,44.5,176.89c0,0-5.5,33.11-29.5,64.61l-11.16,18.66s-3.17,1.67,0-3.66,27.16-44,27.16-44,18.67-32.5,13.34-92-51.34-139.17-71-148.5S265.31,2.78,160.31,8.78c0,0-71.93,17.72-96.33,56s-30.67,60.34-29.67,91.67,2.62,72,16.34,98,23,32,31,37.67S81.81,295.37,81.81,295.37Z"/><path class="i" d="M337,334.45c-3-5-1.67-8.33-9-6s-60,9.33-109,2.67-111.33-13.67-125.67-28l-6-5.67s-12.66-1.67-13,4.33,9,18.34,32.67,26.34,89,21,89,21,122.33,13.33,135-5.34C331,343.78,340,339.45,337,334.45Zm-2.67,2.92c-5.75,8.5-22.75,11.25-22.75,11.25-12,6.25-119.5-3.5-136.5-5.5s-93.75-25.5-97.25-36.5,9.25-6.5,9.25-6.5l2,3c17.5,21.75,108.27,25.1,135.25,31.25s97.75-2.75,105.5-3.5S334.31,337.37,334.31,337.37Z"/><path class="i" d="M107,328.12s-16.08,28-16.54,37.33S89,399.78,89,399.78l5.33-2.66S90.65,367.68,98,353.73s11.91-24.67,11.91-24.67Z"/><path class="i" d="M339.65,550.78c-.32-9.62-1-22.59-2.06-40-5.28-84-11.94-84.66-11.94-84.66s-1.18-3.77,0,5.33c0,0,8.5,62.65,11.18,119.33"/><path class="k" d="M111.92,498.61v15h16.25s.65-14.13,0-15.5S112.59,496.67,111.92,498.61Z"/><path class="i" d="M87.81,405.12a62.71,62.71,0,0,1,10.5-5.34c4.75-1.66,62.75-3.16,85.25-1.41s57.75,8,57.75,8,26.5,2.75,27.25,3.5-12,4.75-12,4.75-2,3,.5,2.75,14.28-5.25,14.28-5.25,3-3-6.28-4.64-60.25-10.18-61.75-9.9-34.09-7.21-93.42-2.21c0,0-12.58.25-15.58,1.75L89,399.78S82.06,404.87,87.81,405.12Z"/><path class="i" d="M84.31,410.12s-5.75-2.5,7.75-2.5,91.5.25,107.25,2.5,54.5,3.07,54.5,3.07,7.5,2.43-14.25,1.18-70.75-4.75-91.5-4.25c0,0-54.41-1-59.08-.5Z"/><path class="i" d="M89,409.62s5.58,103,10.46,119.75c0,0-1.13,2.25,19.62,2.5s147,7.5,148.25,6.5,8.5-4.25,8.25-6.75,0,5.25,0,5.25l-5.76,3.75s-.5.75-9,0l-8.5-.75s-105-3.75-107-4-45.75-.25-49-5.75-12-120-12-120Z"/><path class="i" d="M273.06,410.42l-1.26,36,6.51,89.67-2.74.75v-5.25s-6.75-88.25-7.25-94,1-15.75,1.75-19S271.05,407.21,273.06,410.42Z"/><path class="i" d="M260.26,416.47s4.8,117.9,4.8,118.65-3,4.5-3.5-1.5-.35-61.5-1.3-75.5-3.2-40.75-3.2-40.75Z"/><path class="l" d="M105.88,438.82l3.25,35.5a27.26,27.26,0,0,0,12.08,0c6.67-1.5,43.17-1.16,52.42.67s8.75,2.58,9-1.67,2.75-29.75,0-32C182.63,441.32,102.88,436.07,105.88,438.82Z"/><path class="m" d="M106,441.41l3.06,32.46a26.55,26.55,0,0,0,11.4,0c6.29-1.38,40.71-1.07,49.44.6s8.25,2.37,8.48-1.52,2.6-27.2,0-29.25C178.38,443.7,103.17,438.9,106,441.41Z"/><path class="n" d="M215.53,491.29a3.25,3.25,0,0,1-1.12-.66c-3.12-2.8-19.52-18.82-6.62-35.1,14.22-17.92,32.44-1.54,35.53,1.85s4.94,29-6.18,33.68C227.58,495,218,492.18,215.53,491.29Z"/><path class="o" d="M214.64,491.21a3.28,3.28,0,0,1-1.12-.67c-3-2.68-18-17.46-6.09-32.47,13.16-16.59,30-1.43,32.9,1.72s4.58,26.89-5.72,31.18C225.82,494.64,217,492.05,214.64,491.21Z"/><path class="i" d="M211.19,461.79h24.33s3-1.5-5-1.5H211.19S208.36,461.79,211.19,461.79Z"/><path class="i" d="M212.19,483.13h24.33s3-1.5-5-1.5H212.19S209.36,483.13,212.19,483.13Z"/><path class="i" d="M209.48,477H239.4s3.69-1.84-6.15-1.84H210.47a3.22,3.22,0,0,0-2.14.77C207.76,476.4,207.54,477,209.48,477Z"/><path class="i" d="M208.48,467H238.4s3.69-1.84-6.15-1.84H209.47a3.22,3.22,0,0,0-2.14.77C206.76,466.4,206.54,467,208.48,467Z"/><path class="i" d="M205.72,472h34.52s4.26-1.84-7.09-1.84h-26.6a3.36,3.36,0,0,0-1.74.48C203.92,471.15,203.05,472,205.72,472Z"/><path class="p" d="M109.34,500.11v15h16.25s.65-14.13,0-15.5S110,498.17,109.34,500.11Z"/><line class="i" x1="109.34" y1="500.11" x2="113.56" y2="497.73"/><line class="i" x1="125.59" y1="499.61" x2="128.17" y2="498.11"/><path class="k" d="M139.17,498.61v15h16.25s.65-14.13,0-15.5S139.84,496.67,139.17,498.61Z"/><path class="p" d="M136.59,500.11v15h16.25s.65-14.13,0-15.5S137.25,498.17,136.59,500.11Z"/><line class="i" x1="152.84" y1="499.61" x2="155.42" y2="498.11"/><path class="k" d="M166.09,498.61v15h16.25s.65-14.13,0-15.5S166.75,496.67,166.09,498.61Z"/><path class="p" d="M163.5,500.11v15h16.25s.65-14.13,0-15.5S164.17,498.17,163.5,500.11Z"/><line class="i" x1="179.75" y1="499.61" x2="182.34" y2="498.11"/><line class="i" x1="125.59" y1="515.11" x2="128.17" y2="513.61"/><line class="i" x1="153.06" y1="515.11" x2="155.64" y2="513.61"/><line class="i" x1="179.75" y1="515.11" x2="182.34" y2="513.61"/></svg>